<?xml version="1.0" encoding="UTF-8" standalone="no"?>
<svg
   xmlns:dc="http://purl.org/dc/elements/1.1/"
   xmlns:cc="http://creativecommons.org/ns#"
   xmlns:rdf="http://www.w3.org/1999/02/22-rdf-syntax-ns#"
   xmlns:svg="http://www.w3.org/2000/svg"
   xmlns="http://www.w3.org/2000/svg"
   xmlns:sodipodi="http://sodipodi.sourceforge.net/DTD/sodipodi-0.dtd"
   xmlns:inkscape="http://www.inkscape.org/namespaces/inkscape"
   inkscape:version="1.0 (4035a4fb49, 2020-05-01)"
   sodipodi:docname="github1.svg"
   id="svg12"
   version="1.1"
   viewBox="0 0 128 128">
  <metadata
     id="metadata18">
    <rdf:RDF>
      <cc:Work
         rdf:about="">
        <dc:format>image/svg+xml</dc:format>
        <dc:type
           rdf:resource="http://purl.org/dc/dcmitype/StillImage" />
      </cc:Work>
    </rdf:RDF>
  </metadata>
  <defs
     id="defs16" />
  <sodipodi:namedview
     inkscape:current-layer="svg12"
     inkscape:window-maximized="0"
     inkscape:window-y="0"
     inkscape:window-x="0"
     inkscape:cy="63.174071"
     inkscape:cx="-34.258244"
     inkscape:zoom="2.3478155"
     showgrid="false"
     id="namedview14"
     inkscape:window-height="961"
     inkscape:window-width="1571"
     inkscape:pageshadow="2"
     inkscape:pageopacity="0"
     guidetolerance="10"
     gridtolerance="10"
     objecttolerance="10"
     borderopacity="1"
     bordercolor="#666666"
     pagecolor="#ffffff" />
  <g
     id="g6"
     fill="#181616">
    <path
       id="path2"
       d="M64 1.512c-23.493 0-42.545 19.047-42.545 42.545 0 18.797 12.19 34.745 29.095 40.37 2.126.394 2.907-.923 2.907-2.047 0-1.014-.04-4.366-.058-7.92-11.837 2.573-14.334-5.02-14.334-5.02-1.935-4.918-4.724-6.226-4.724-6.226-3.86-2.64.29-2.586.29-2.586 4.273.3 6.523 4.385 6.523 4.385 3.794 6.504 9.953 4.623 12.38 3.536.383-2.75 1.485-4.628 2.702-5.69-9.45-1.075-19.384-4.724-19.384-21.026 0-4.645 1.662-8.44 4.384-11.42-.442-1.072-1.898-5.4.412-11.26 0 0 3.572-1.142 11.7 4.363 3.395-.943 7.035-1.416 10.65-1.432 3.616.017 7.258.49 10.658 1.432 8.12-5.504 11.688-4.362 11.688-4.362 2.316 5.86.86 10.187.418 11.26 2.728 2.978 4.378 6.774 4.378 11.42 0 16.34-9.953 19.938-19.427 20.99 1.526 1.32 2.886 3.91 2.886 7.88 0 5.692-.048 10.273-.048 11.674 0 1.13.766 2.458 2.922 2.04 16.896-5.632 29.07-21.574 29.07-40.365C106.545 20.56 87.497 1.512 64 1.512z"
       clip-rule="evenodd"
       fill-rule="evenodd" />
    <path
       id="path4"
       d="M37.57 62.596c-.095.212-.428.275-.73.13-.31-.14-.482-.427-.382-.64.09-.216.424-.277.733-.132.31.14.486.43.38.642zm-.524-.388M39.293 64.52c-.203.187-.6.1-.87-.198-.278-.297-.33-.694-.124-.884.208-.188.593-.1.87.197.28.3.335.693.123.884zm-.406-.437M40.97 66.968c-.26.182-.687.012-.95-.367-.262-.377-.262-.83.005-1.013.264-.182.684-.018.95.357.262.385.262.84-.005 1.024zm0 0M43.268 69.336c-.233.257-.73.188-1.093-.163-.372-.343-.475-.83-.242-1.087.237-.257.736-.185 1.102.163.37.342.482.83.233 1.086zm0 0M46.44 70.71c-.104.334-.582.485-1.064.344-.482-.146-.796-.536-.7-.872.1-.336.582-.493 1.067-.342.48.144.795.53.696.87zm0 0M49.92 70.965c.013.35-.396.642-.902.648-.508.012-.92-.272-.926-.618 0-.354.4-.642.908-.65.506-.01.92.272.92.62zm0 0M53.16 70.414c.06.342-.29.694-.793.787-.494.092-.95-.12-1.014-.46-.06-.35.297-.7.79-.792.503-.088.953.118 1.017.466zm0 0" />
  </g>
  <g
     id="g10"
     fill="#100E0F">
    <path
       id="path8"
       d="M24.855 108.302h-10.7a.5.5 0 0 0-.5.5v5.232a.5.5 0 0 0 .5.5h4.173v6.5s-.937.32-3.53.32c-3.056 0-7.327-1.116-7.327-10.508 0-9.393 4.448-10.63 8.624-10.63 3.614 0 5.17.636 6.162.943.31.094.6-.216.6-.492l1.193-5.055a.468.468 0 0 0-.192-.39c-.403-.288-2.857-1.66-9.058-1.66-7.144 0-14.472 3.038-14.472 17.65 0 14.61 8.39 16.787 15.46 16.787 5.854 0 9.405-2.502 9.405-2.502.146-.08.162-.285.162-.38v-16.316a.5.5 0 0 0-.5-.5zM79.506 94.81H73.48a.5.5 0 0 0-.498.503l.002 11.644h-9.392V95.313a.5.5 0 0 0-.497-.503H57.07a.5.5 0 0 0-.498.503v31.53c0 .277.224.503.498.503h6.025a.5.5 0 0 0 .497-.504v-13.486h9.392l-.016 13.486c0 .278.224.504.5.504h6.038a.5.5 0 0 0 .497-.504v-31.53c0-.278-.22-.502-.497-.502zM32.34 95.527c-2.144 0-3.884 1.753-3.884 3.923 0 2.167 1.74 3.925 3.884 3.925 2.146 0 3.885-1.758 3.885-3.925 0-2.17-1.74-3.923-3.885-3.923zM35.296 105.135H29.29c-.276 0-.522.284-.522.56v20.852c0 .613.382.795.876.795h5.41c.595 0 .74-.292.74-.805v-6.346-14.553a.5.5 0 0 0-.498-.502zM102.902 105.182h-5.98a.5.5 0 0 0-.496.504v15.46s-1.52 1.11-3.675 1.11-2.727-.977-2.727-3.088v-13.482a.5.5 0 0 0-.497-.504h-6.068a.502.502 0 0 0-.498.504v14.502c0 6.27 3.495 7.804 8.302 7.804 3.944 0 7.124-2.18 7.124-2.18s.15 1.15.22 1.285c.07.136.247.273.44.273l3.86-.017a.502.502 0 0 0 .5-.504l-.003-21.166a.504.504 0 0 0-.5-.502zM119.244 104.474c-3.396 0-5.706 1.515-5.706 1.515V95.312a.5.5 0 0 0-.497-.503H107a.5.5 0 0 0-.5.503v31.53a.5.5 0 0 0 .5.503h4.192c.19 0 .332-.097.437-.268.103-.17.254-1.454.254-1.454s2.47 2.34 7.148 2.34c5.49 0 8.64-2.784 8.64-12.502s-5.03-10.988-8.428-10.988zm-2.36 17.764c-2.073-.063-3.48-1.004-3.48-1.004v-9.985s1.388-.85 3.09-1.004c2.153-.193 4.228.458 4.228 5.594 0 5.417-.935 6.486-3.837 6.398zM53.195 122.12c-.263 0-.937.107-1.63.107-2.22 0-2.973-1.032-2.973-2.368v-8.866h4.52a.5.5 0 0 0 .5-.504v-4.856a.5.5 0 0 0-.5-.502h-4.52l-.007-5.97c0-.227-.116-.34-.378-.34h-6.16c-.238 0-.367.106-.367.335v6.17s-3.087.745-3.295.805a.5.5 0 0 0-.36.48v3.877a.5.5 0 0 0 .497.503h3.158v9.328c0 6.93 4.86 7.61 8.14 7.61 1.497 0 3.29-.48 3.586-.59.18-.067.283-.252.283-.453l.004-4.265a.51.51 0 0 0-.5-.502z" />
  </g>
  <path
     id="path843"
     d="M 48.092091,83.194579 C 42.82485,81.078344 39.067868,78.543703 34.515611,74.035231 25.903456,65.505911 21.879138,56.051198 21.825128,44.220281 21.772261,32.639896 25.8678,22.677843 34.098211,14.367033 39.947031,8.4610808 45.651831,5.2106243 54.334749,2.8367473 58.612853,1.6671297 69.967115,1.7820711 74.566322,3.0415554 c 4.168262,1.1414708 10.564825,4.1714124 14.031848,6.6466452 3.139322,2.2412764 8.415976,7.7092594 10.511929,10.8930854 11.255411,17.097366 8.992251,39.1323 -5.494371,53.495251 -4.292484,4.255833 -9.870248,7.849382 -14.834531,9.557348 -1.931787,0.664631 -2.325102,0.684973 -3.075914,0.159084 -0.804305,-0.563357 -0.870035,-1.141861 -0.99993,-8.800755 C 74.57001,67.012 74.536034,66.740769 73.425005,64.7713 l -1.14132,-2.023157 h 1.079838 c 1.730102,0 6.123352,-1.262757 8.583179,-2.467077 3.021187,-1.479157 6.557457,-5.33107 7.70158,-8.389015 2.644484,-7.068008 2.049889,-15.469974 -1.416397,-20.014507 -1.020132,-1.337461 -1.063112,-1.580022 -0.655925,-3.701703 0.444954,-2.318452 0.310161,-4.274469 -0.51602,-7.488073 -0.432628,-1.682794 -0.567153,-1.810194 -1.911415,-1.810194 -1.910989,0 -5.624143,1.331719 -8.294523,2.97482 l -2.151992,1.324133 -4.2982,-0.71871 c -4.504967,-0.753284 -10.851121,-0.635026 -14.749652,0.274853 -1.777667,0.414891 -2.076299,0.336324 -5.750026,-1.512775 -2.443214,-1.229744 -4.696951,-2.044218 -6.099601,-2.204323 -2.144587,-0.244794 -2.243789,-0.209704 -2.757321,0.975338 -0.312247,0.720549 -0.544434,3.168188 -0.561058,5.914474 -0.02596,4.288557 -0.124907,4.848653 -1.16876,6.615837 -2.002331,3.389835 -2.503124,5.404607 -2.484451,9.995349 0.01943,4.776389 0.777165,8.264103 2.47198,11.378041 2.291638,4.210492 7.193939,7.417299 13.006671,8.508224 2.665397,0.500235 3.546758,1.157654 2.455866,1.831864 -0.230531,0.142477 -0.680438,1.160044 -0.999794,2.26126 -0.552124,1.903855 -0.683224,2.028681 -2.66883,2.541102 -3.977148,1.026371 -6.692252,-0.08886 -9.513328,-3.907611 -2.3761,-3.216407 -4.368385,-4.510946 -6.942311,-4.510946 -2.753185,0 -2.687358,0.905561 0.253273,3.484179 1.488362,1.305132 2.675934,2.849321 3.43942,4.472242 2.347304,4.9896 4.543875,6.298834 10.581116,6.306718 l 4.165632,0.0055 -0.119317,4.424317 c -0.147606,5.473262 -0.40428,5.677874 -4.871228,3.883176 z"
     style="fill:#f0f0f0;fill-opacity:1;stroke:#000000;stroke-width:0.0425928" />
  <path
     id="path845"
     d="m 28.970734,126.52242 c -0.114145,-0.29746 -0.156046,-5.13707 -0.09311,-10.75468 l 0.114422,-10.21385 3.300941,-0.1244 3.300941,-0.12439 v 10.87907 10.87908 h -3.207827 c -2.199987,0 -3.273031,-0.16992 -3.415363,-0.54083 z"
     style="fill:#f0f0f0;fill-opacity:1;stroke:#000000;stroke-width:0.0425928" />
  <path
     id="path847"
     d="m 11.316036,127.34763 c -4.8987327,-1.14101 -7.6823794,-3.47721 -9.4739531,-7.95108 -0.8160123,-2.03773 -0.93810089,-3.14637 -0.93810089,-8.51856 0,-7.60913 0.74711099,-10.01248 4.18961369,-13.477362 2.6189235,-2.63595 5.2349663,-3.562989 10.0266153,-3.553099 3.002692,0.0062 7.819058,0.826407 8.427889,1.435239 0.146748,0.146747 -0.014,1.463612 -0.357218,2.926365 -0.537674,2.291507 -0.739409,2.630077 -1.457751,2.446587 -0.458545,-0.11713 -2.846227,-0.21296 -5.305961,-0.21296 -3.94415,0 -4.629498,0.11217 -5.803996,0.94995 -0.7324653,0.52247 -1.6720315,1.66703 -2.0879253,2.54346 -1.5537065,3.27419 -1.5223433,10.81227 0.058229,13.9954 1.3267461,2.67194 2.6866423,3.38165 6.4796423,3.38165 h 3.270726 l 0.123707,-3.5139 0.123708,-3.51391 h -2.37929 -2.379289 l 0.125943,-2.87501 0.125942,-2.87501 5.43944,-0.11928 5.43944,-0.11927 -0.115342,8.63582 -0.115342,8.63582 -2.354866,0.93405 c -2.990685,1.18624 -7.965494,1.56631 -11.061861,0.8451 z"
     style="fill:#f0f0f0;fill-opacity:1;stroke:#000000;stroke-width:0.0425928" />
  <path
     id="path849"
     d="m 30.073926,102.0161 c -2.049731,-2.049734 -1.612309,-4.743191 0.944922,-5.818426 2.392663,-1.006039 5.001003,0.851398 5.001003,3.561289 0,1.261037 -1.726811,2.990877 -3.283876,3.289647 -1.143173,0.21935 -1.579374,0.0502 -2.662049,-1.03251 z"
     style="fill:#f0f0f0;fill-opacity:1;stroke:#000000;stroke-width:0.0425928" />
  <path
     id="path851"
     d="m 47.617725,127.50182 c -2.239356,-0.35111 -3.90958,-1.52988 -4.888848,-3.45034 -0.601511,-1.17964 -0.744839,-2.58191 -0.745374,-7.29249 l -6.62e-4,-5.83202 -1.810193,-0.13097 -1.810193,-0.13097 v -2.116 c 0,-2.10525 0.0086,-2.11841 1.703711,-2.59273 l 1.703711,-0.47674 0.124399,-3.26377 0.124398,-3.26378 h 3.176542 3.176543 v 3.19446 3.19446 h 2.575891 2.575892 l -0.126807,2.66205 -0.126806,2.66205 -2.449085,0.12773 -2.449085,0.12774 v 5.02387 c 0,5.82145 0.317307,6.43367 3.334479,6.43367 h 1.776655 v 2.33449 c 0,2.14721 -0.08542,2.35222 -1.064819,2.55557 -2.271508,0.47161 -3.043365,0.50919 -4.800349,0.23372 z"
     style="fill:#f0f0f0;fill-opacity:1;stroke:#000000;stroke-width:0.0425928" />
  <path
     id="path853"
     d="M 56.890316,111.09095 V 95.118659 h 3.194459 3.194459 v 5.962991 5.96299 h 4.89817 4.89817 v -5.96299 -5.962991 h 3.407423 3.407423 v 15.972291 15.9723 h -3.407423 -3.407423 v -7.02781 -7.02781 h -4.89817 -4.89817 v 7.02781 7.02781 h -3.194459 -3.194459 z"
     style="fill:#f0f0f0;fill-opacity:1;stroke:#000000;stroke-width:0.0425928" />
  <path
     id="path855"
     d="m 88.21012,127.43385 c -0.929283,-0.21762 -2.145416,-0.82129 -2.702518,-1.34148 -2.07451,-1.93706 -2.209759,-2.67144 -2.209759,-11.99877 v -8.75267 h 3.194459 3.194458 l 0.0063,7.34725 c 0.0074,8.67324 0.223062,9.41369 2.797047,9.60388 0.945221,0.0698 2.230242,-0.0676 2.855602,-0.30531 l 1.137017,-0.43229 0.115933,-8.00029 0.115932,-8.00028 h 3.194459 3.19446 l 0.11379,10.75468 0.1138,10.75468 h -2.34992 c -1.880209,0 -2.349914,-0.13763 -2.349914,-0.68857 0,-0.74858 -0.006,-0.74756 -3.83335,0.65448 -2.538136,0.92976 -3.970049,1.01773 -6.587775,0.40469 z"
     style="fill:#f0f0f0;fill-opacity:1;stroke:#000000;stroke-width:0.0425928" />
  <path
     id="path863"
     d="m 116.57933,127.46569 c -1.02166,-0.2058 -2.52409,-0.76746 -3.33874,-1.24811 l -1.48118,-0.87392 -0.22484,0.85979 c -0.19041,0.72812 -0.57599,0.8598 -2.51777,0.8598 h -2.29293 V 111.07304 95.082827 l 3.30095,0.124398 3.30094,0.124398 0.119,5.403617 0.11901,5.40361 1.56648,-0.65452 c 2.1022,-0.87835 6.01957,-0.8378 7.95873,0.0824 3.31646,1.57377 4.96739,6.871 4.13971,13.2828 -0.75731,5.86669 -2.64152,8.19824 -7.08809,8.77094 -0.93704,0.12069 -2.53961,0.051 -3.56127,-0.15477 z m 3.17463,-5.98291 c 0.61634,-0.68105 0.84679,-1.70105 0.96313,-4.2629 0.0841,-1.85221 0.0319,-3.85006 -0.11613,-4.43967 -0.62494,-2.48995 -3.01395,-3.37861 -6.14683,-2.28648 l -1.34134,0.46759 v 5.21735 c 0,4.98968 0.0418,5.23751 0.95834,5.67953 1.71901,0.82905 4.77553,0.62713 5.68283,-0.37542 z"
     style="fill:#f0f0f0;fill-opacity:1;stroke:#000000;stroke-width:0.0425928" />
</svg>
