<?xml version="1.0" encoding="UTF-8" standalone="no"?>
<svg
   xmlns:dc="http://purl.org/dc/elements/1.1/"
   xmlns:cc="http://creativecommons.org/ns#"
   xmlns:rdf="http://www.w3.org/1999/02/22-rdf-syntax-ns#"
   xmlns:svg="http://www.w3.org/2000/svg"
   xmlns="http://www.w3.org/2000/svg"
   xmlns:xlink="http://www.w3.org/1999/xlink"
   xmlns:sodipodi="http://sodipodi.sourceforge.net/DTD/sodipodi-0.dtd"
   xmlns:inkscape="http://www.inkscape.org/namespaces/inkscape"
   inkscape:version="1.0 (4035a4fb49, 2020-05-01)"
   sodipodi:docname="rs_school_js1.svg"
   version="1.1"
   viewBox="0 0 552.8 205.3"
   id="Layer_1">
  <metadata
     id="metadata83">
    <rdf:RDF>
      <cc:Work
         rdf:about="">
        <dc:format>image/svg+xml</dc:format>
        <dc:type
           rdf:resource="http://purl.org/dc/dcmitype/StillImage" />
        <dc:title>rs_school_js</dc:title>
      </cc:Work>
    </rdf:RDF>
  </metadata>
  <sodipodi:namedview
     inkscape:current-layer="Layer_1"
     inkscape:window-maximized="1"
     inkscape:window-y="-8"
     inkscape:window-x="-8"
     inkscape:cy="102.65"
     inkscape:cx="276.39999"
     inkscape:zoom="2.3769899"
     showgrid="false"
     id="namedview81"
     inkscape:window-height="1018"
     inkscape:window-width="1920"
     inkscape:pageshadow="2"
     inkscape:pageopacity="0"
     guidetolerance="10"
     gridtolerance="10"
     objecttolerance="10"
     borderopacity="1"
     bordercolor="#666666"
     pagecolor="#ffffff" />
  <style
     id="style2">.st0{fill:#fff}.st1{clip-path:url(#SVGID_2_)}.st2{clip-path:url(#SVGID_4_)}.st3{clip-path:url(#SVGID_6_)}.st4{clip-path:url(#SVGID_8_)}.st5{fill:#fff;stroke:#000;stroke-width:4;stroke-miterlimit:10}.st6{clip-path:url(#SVGID_8_)}.st6,.st7{fill:none;stroke:#000;stroke-width:4;stroke-miterlimit:10}.st8,.st9{clip-path:url(#SVGID_10_)}.st9{fill:none;stroke:#000;stroke-width:4;stroke-miterlimit:10}</style>
  <title
     id="title4">rs_school_js</title>
  <path
     id="path6"
     d="M285.4 68l26.3-1.7c.6 4.3 1.7 7.5 3.5 9.8 2.9 3.6 6.9 5.4 12.2 5.4 3.9 0 7-.9 9.1-2.8 2-1.5 3.2-3.9 3.2-6.4 0-2.4-1.1-4.7-3-6.2-2-1.8-6.7-3.6-14.1-5.2-12.1-2.7-20.8-6.3-25.9-10.9-5.1-4.3-8-10.6-7.8-17.3 0-4.6 1.4-9.2 4-13 3-4.3 7.1-7.7 12-9.6 5.3-2.3 12.7-3.5 22-3.5 11.4 0 20.1 2.1 26.1 6.4 6 4.2 9.6 11 10.7 20.3l-26 1.5c-.7-4-2.1-6.9-4.4-8.8s-5.3-2.8-9.2-2.8c-3.2 0-5.6.7-7.2 2-1.5 1.2-2.5 3-2.4 5 0 1.5.8 2.9 2 3.8 1.3 1.2 4.4 2.3 9.3 3.3 12.1 2.6 20.7 5.2 26 7.9 5.3 2.7 9.1 6 11.4 9.9 2.4 4 3.6 8.6 3.5 13.3 0 5.6-1.6 11.2-4.8 15.9-3.3 4.9-7.9 8.7-13.3 11-5.7 2.5-12.9 3.8-21.5 3.8-15.2 0-25.7-2.9-31.6-8.8S286.1 77 285.4 68zM6.3 97.6V8.2h46.1c8.5 0 15.1.7 19.6 2.2 4.4 1.4 8.3 4.3 10.9 8.2 2.9 4.3 4.3 9.3 4.2 14.5.3 8.8-4.2 17.2-11.9 21.6-3 1.7-6.3 2.9-9.7 3.5 2.5.7 5 1.9 7.2 3.3 1.7 1.4 3.1 3 4.4 4.7 1.5 1.7 2.8 3.6 3.9 5.6l13.4 25.9H63L48.2 70.2c-1.9-3.5-3.5-5.8-5-6.9-2-1.4-4.4-2.1-6.8-2.1H34v36.3H6.3zM34 44.4h11.7c2.5-.2 4.9-.6 7.3-1.2 1.8-.3 3.4-1.3 4.5-2.8 2.7-3.6 2.3-8.7-1-11.8-1.8-1.5-5.3-2.3-10.3-2.3H34v18.1zM0 174.2l26.3-1.7c.6 4.3 1.7 7.5 3.5 9.8 2.8 3.6 6.9 5.5 12.2 5.5 3.9 0 7-.9 9.1-2.8 2-1.6 3.2-3.9 3.2-6.4 0-2.4-1.1-4.7-3-6.2-2-1.8-6.7-3.6-14.2-5.2-12.1-2.7-20.8-6.3-25.9-10.9-5.1-4.3-8-10.6-7.8-17.3 0-4.6 1.4-9.2 4-13 3-4.3 7.1-7.7 12-9.6 5.3-2.3 12.7-3.5 22-3.5 11.4 0 20.1 2.1 26.1 6.4s9.5 11 10.6 20.3l-26 1.5c-.7-4-2.1-6.9-4.4-8.8-2.2-1.9-5.3-2.8-9.2-2.7-3.2 0-5.6.7-7.2 2.1-1.6 1.2-2.5 3-2.4 5 0 1.5.8 2.9 2 3.8 1.3 1.2 4.4 2.3 9.3 3.3 12.1 2.6 20.7 5.2 26 7.9 5.3 2.7 9.1 6 11.4 9.9 2.4 4 3.6 8.6 3.6 13.2 0 5.6-1.7 11.1-4.8 15.8-3.3 4.9-7.9 8.7-13.3 11-5.7 2.5-12.9 3.8-21.5 3.8-15.2 0-25.7-2.9-31.6-8.8-5.9-6-9.2-13.4-10-22.4z" />
  <path
     id="path8"
     d="M133 167.2l24.2 7.3c-1.3 6.1-4 11.9-7.7 17-3.4 4.5-7.9 8-13 10.3-5.2 2.3-11.8 3.5-19.8 3.5-9.7 0-17.7-1.4-23.8-4.2-6.2-2.8-11.5-7.8-16-14.9-4.5-7.1-6.7-16.2-6.7-27.3 0-14.8 3.9-26.2 11.8-34.1s19-11.9 33.4-11.9c11.3 0 20.1 2.3 26.6 6.8 6.4 4.6 11.2 11.6 14.4 21l-24.4 5.4c-.6-2.1-1.5-4.2-2.7-6-1.5-2.1-3.4-3.7-5.7-4.9-2.3-1.2-4.9-1.7-7.5-1.7-6.3 0-11.1 2.5-14.4 7.6-2.5 3.7-3.8 9.6-3.8 17.6 0 9.9 1.5 16.7 4.5 20.4 3 3.7 7.2 5.5 12.7 5.5 5.3 0 9.3-1.5 12-4.4 2.7-3.1 4.7-7.4 5.9-13zm56.5-52.8h27.6v31.3h30.2v-31.3h27.8v89.4h-27.8v-36.2h-30.2v36.2h-27.6v-89.4z" />
  <path
     id="path10"
     d="M271.3 159.1c0-14.6 4.1-26 12.2-34.1 8.1-8.1 19.5-12.2 34-12.2 14.9 0 26.3 4 34.4 12S364 144 364 158.4c0 10.5-1.8 19-5.3 25.7-3.4 6.6-8.7 12-15.2 15.6-6.7 3.7-15 5.6-24.9 5.6-10.1 0-18.4-1.6-25-4.8-6.8-3.4-12.4-8.7-16.1-15.2-4.1-7-6.2-15.7-6.2-26.2zm27.6.1c0 9 1.7 15.5 5 19.5 3.3 3.9 7.9 5.9 13.7 5.9 5.9 0 10.5-1.9 13.8-5.8s4.9-10.8 4.9-20.8c0-8.4-1.7-14.6-5.1-18.4-3.4-3.9-8-5.8-13.8-5.8-5.1-.2-10 2-13.4 5.9-3.4 3.9-5.1 10.4-5.1 19.5zm93.4-.1c0-14.6 4.1-26 12.2-34.1 8.1-8.1 19.5-12.2 34-12.2 14.9 0 26.4 4 34.4 12S485 144 485 158.4c0 10.5-1.8 19-5.3 25.7-3.4 6.6-8.7 12-15.2 15.6-6.7 3.7-15 5.6-24.9 5.6-10.1 0-18.4-1.6-25-4.8-6.8-3.4-12.4-8.7-16.1-15.2-4.1-7-6.2-15.7-6.2-26.2zm27.6.1c0 9 1.7 15.5 5 19.5 3.3 3.9 7.9 5.9 13.7 5.9 5.9 0 10.5-1.9 13.8-5.8 3.3-3.9 4.9-10.8 4.9-20.8 0-8.4-1.7-14.6-5.1-18.4-3.4-3.9-8-5.8-13.8-5.8-5.1-.2-10.1 2-13.4 5.9-3.4 3.9-5.1 10.4-5.1 19.5z" />
  <path
     id="path12"
     d="M482.1 114.4h27.6v67.4h43.1v22H482v-89.4z" />
  <ellipse
     id="ellipse14"
     ry="51.8"
     rx="63"
     cy="67.9"
     cx="420.5"
     class="st0"
     transform="rotate(-37.001 420.46 67.88)" />
  <defs
     id="defs17">
    <ellipse
       ry="51.8"
       rx="63"
       cy="67.9"
       cx="420.5"
       transform="rotate(-37.001 420.46 67.88)"
       id="SVGID_1_" />
  </defs>
  <clipPath
     id="SVGID_2_">
    <use
       id="use19"
       overflow="visible"
       xlink:href="#SVGID_1_" />
  </clipPath>
  <g
     style="fill:none;fill-opacity:1"
     id="g78"
     clip-path="url(#SVGID_2_)"
     class="st1">
    <path
       style="fill:none;fill-opacity:1"
       id="path22"
       d="M330.9-14.2h179.8v165.1H330.9z"
       class="st0"
       transform="rotate(-37.001 420.82 68.353)" />
    <g
       style="fill:none;fill-opacity:1"
       id="Layer_2_1_">
      <defs
         style="fill-opacity:1.0"
         id="defs25">
        <path
           style="fill-opacity:1.0"
           d="M330.9-14.2h179.8v165.1H330.9z"
           transform="rotate(-37.001 420.82 68.353)"
           id="SVGID_3_" />
      </defs>
      <clipPath
         style="fill-opacity:1.0"
         id="SVGID_4_">
        <use
           style="fill-opacity:1.0"
           id="use27"
           overflow="visible"
           xlink:href="#SVGID_3_" />
      </clipPath>
      <g
         style="fill:none;fill-opacity:1"
         clip-path="url(#SVGID_4_)"
         class="st2"
         id="Layer_1-2">
        <ellipse
           style="fill:none;fill-opacity:1"
           id="ellipse30"
           ry="51.8"
           rx="63"
           cy="67.9"
           cx="420.5"
           class="st0"
           transform="rotate(-37.001 420.46 67.88)" />
        <defs
           style="fill-opacity:1.0"
           id="defs33">
          <ellipse
             style="fill-opacity:1.0"
             ry="51.8"
             rx="63"
             cy="67.9"
             cx="420.5"
             transform="rotate(-37.001 420.46 67.88)"
             id="SVGID_5_" />
        </defs>
        <clipPath
           style="fill-opacity:1.0"
           id="SVGID_6_">
          <use
             style="fill-opacity:1.0"
             id="use35"
             overflow="visible"
             xlink:href="#SVGID_5_" />
        </clipPath>
        <g
           style="fill:none;fill-opacity:1"
           id="g70"
           clip-path="url(#SVGID_6_)"
           class="st3">
          <path
             style="fill:none;fill-opacity:1"
             id="path38"
             d="M357.8 17h125.9v103.7H357.8z"
             class="st0"
             transform="rotate(-37 420.799 68.802)" />
          <defs
             style="fill-opacity:1.0"
             id="defs41">
            <path
               style="fill-opacity:1.0"
               d="M357.8 17h125.9v103.7H357.8z"
               transform="rotate(-37 420.799 68.802)"
               id="SVGID_7_" />
          </defs>
          <clipPath
             style="fill-opacity:1.0"
             id="SVGID_8_">
            <use
               style="fill-opacity:1.0"
               id="use43"
               overflow="visible"
               xlink:href="#SVGID_7_" />
          </clipPath>
          <g
             style="fill:none;fill-opacity:1"
             id="g48"
             clip-path="url(#SVGID_8_)"
             class="st4">
            <ellipse
               style="fill:none;fill-opacity:1"
               id="ellipse46"
               ry="51.8"
               rx="63"
               cy="67.9"
               cx="420.5"
               class="st5"
               transform="rotate(-37.001 420.46 67.88)" />
          </g>
          <path
             style="fill:none;fill-opacity:1"
             id="path50"
             clip-path="url(#SVGID_8_)"
             d="M357.8 17h125.9v103.7H357.8z"
             class="st6"
             transform="rotate(-37 420.799 68.802)" />
          <ellipse
             style="fill:none;fill-opacity:1"
             id="ellipse52"
             ry="51.8"
             rx="63"
             cy="67.9"
             cx="420.5"
             class="st7"
             transform="rotate(-37.001 420.46 67.88)" />
          <path
             style="fill:none;fill-opacity:1"
             id="path54"
             d="M357.8 17h125.9v103.7H357.8z"
             class="st0"
             transform="rotate(-37 420.799 68.802)" />
          <defs
             style="fill-opacity:1.0"
             id="defs57">
            <path
               style="fill-opacity:1.0"
               d="M357.8 17h125.9v103.7H357.8z"
               transform="rotate(-37 420.799 68.802)"
               id="SVGID_9_" />
          </defs>
          <clipPath
             style="fill-opacity:1.0"
             id="SVGID_10_">
            <use
               style="fill-opacity:1.0"
               id="use59"
               overflow="visible"
               xlink:href="#SVGID_9_" />
          </clipPath>
          <g
             style="fill:none;fill-opacity:1"
             id="g64"
             clip-path="url(#SVGID_10_)"
             class="st8">
            <ellipse
               style="fill:none;fill-opacity:1"
               id="ellipse62"
               ry="51.8"
               rx="63"
               cy="67.9"
               cx="420.5"
               class="st5"
               transform="rotate(-37.001 420.46 67.88)" />
          </g>
          <path
             style="fill:none;fill-opacity:1"
             id="path66"
             clip-path="url(#SVGID_10_)"
             d="M357.8 17h125.9v103.7H357.8z"
             class="st9"
             transform="rotate(-37 420.799 68.802)" />
          <path
             style="fill:none;fill-opacity:1"
             id="path68"
             d="M330.9-14.2h179.8v165.1H330.9z"
             class="st7"
             transform="rotate(-37.001 420.82 68.353)" />
        </g>
        <ellipse
           style="fill:none;fill-opacity:1"
           id="ellipse72"
           ry="51.8"
           rx="63"
           cy="67.9"
           cx="420.5"
           class="st7"
           transform="rotate(-37.001 420.46 67.88)" />
        <path
           style="fill:none;fill-opacity:1"
           id="path74"
           d="M392.4 61.3l10-7 12.3 17.5c2.1 2.8 3.7 5.8 4.9 9.1.7 2.5.5 5.2-.5 7.6-1.3 3-3.4 5.5-6.2 7.3-3.3 2.3-6.1 3.6-8.5 4-2.3.4-4.7 0-6.9-1-2.4-1.2-4.5-2.9-6.1-5.1l8.6-8c.7 1.1 1.6 2.1 2.6 2.9.7.5 1.5.8 2.4.8.7 0 1.4-.3 1.9-.7 1-.6 1.7-1.8 1.6-3-.3-1.7-1-3.4-2.1-4.7l-14-19.7zm30 11.1l9.1-7.2c1 1.2 2.3 2.1 3.7 2.6 2 .6 4.1.2 5.8-1.1 1.2-.8 2.2-1.9 2.6-3.3.6-1.8-.4-3.8-2.2-4.4-.3-.1-.6-.2-.9-.2-1.2-.1-3.3.4-6.4 1.7-5.1 2.1-9.1 2.9-12.1 2.6-2.9-.3-5.6-1.8-7.2-4.3-1.2-1.7-1.8-3.7-1.9-5.7 0-2.3.6-4.6 1.9-6.5 1.9-2.7 4.2-5 7-6.8 4.2-2.9 7.9-4.3 11.1-4.3 3.2 0 6.2 1.5 9 4.6l-9 7.1c-1.8-2.3-5.2-2.8-7.5-1l-.3.3c-1 .6-1.7 1.5-2.1 2.6-.3.8-.1 1.7.4 2.4.4.5 1 .9 1.7.9.8.1 2.2-.3 4.2-1.2 5-2.1 8.8-3.3 11.4-3.7 2.2-.4 4.5-.2 6.6.7 1.9.8 3.5 2.2 4.6 3.9 1.4 2 2.2 4.4 2.3 6.9.1 2.6-.6 5.1-2 7.3-1.8 2.7-4.1 5-6.8 6.8-5.5 3.8-10 5.4-13.6 4.8-3.9-.6-7.1-2.6-9.4-5.5z" />
      </g>
    </g>
  </g>
  <path
     id="path908"
     d="M 6.3105021,52.750867 V 8.1104838 l 27.4506839,0.216352 c 16.519002,0.1301941 28.704308,0.4001847 30.59867,0.6779768 7.764127,1.1385414 11.634328,2.8180424 15.584404,6.7629614 4.749688,4.743484 6.798821,9.982839 6.831304,17.466704 0.04862,11.199969 -6.255101,19.915394 -17.017557,23.528232 -1.773962,0.595501 -3.561172,1.082726 -3.971577,1.082726 -1.130405,0 -0.264869,0.558661 2.882326,1.860404 6.145991,2.54211 9.154077,6.510149 18.221263,24.036139 3.809364,7.363123 6.926113,13.448731 6.926113,13.52357 0,0.07484 -6.929146,0.08641 -15.398101,0.02571 L 63.019931,97.1809 55.884187,83.928845 C 46.851711,67.154306 45.849117,65.468817 43.804814,63.621914 c -1.9725,-1.782035 -3.918386,-2.405319 -7.519427,-2.408529 l -2.629376,-0.0023 V 79.301144 97.39125 H 19.983257 6.3105021 Z M 48.938558,44.175659 c 5.364024,-0.808515 7.470714,-1.752716 8.971877,-4.021129 1.615829,-2.441686 1.900689,-6.61943 0.622215,-9.125446 -2.053218,-4.024644 -4.474676,-4.736158 -16.118293,-4.736158 h -8.758346 v 9.255403 9.255403 l 5.574277,-0.0025 c 3.065853,-0.0013 7.434575,-0.282881 9.70827,-0.625594 z"
     style="fill:#f0f0f0;stroke:#000000;stroke-width:0.04207;fill-opacity:1" />
  <path
     id="path910"
     d="m 320.15281,98.649366 c -12.25603,-0.936659 -19.75734,-3.745405 -25.14195,-9.414007 -3.45467,-3.636869 -5.63483,-7.108221 -7.22714,-11.507419 -1.32225,-3.653091 -2.35339,-8.910981 -1.83577,-9.360789 0.28057,-0.243804 21.99857,-1.734012 24.74802,-1.698114 0.69874,0.0091 0.93274,0.442349 1.31263,2.430128 1.04008,5.442173 4.38247,9.767387 8.87558,11.485404 2.82357,1.079643 8.84998,1.321096 11.76677,0.47145 5.44627,-1.586478 8.5606,-7.117717 6.6214,-11.760017 -1.75736,-4.206976 -4.71449,-5.697239 -17.64709,-8.893344 -11.16964,-2.760416 -17.8463,-5.473057 -23.21864,-9.433448 -11.05249,-8.147688 -12.44599,-23.505139 -3.06516,-33.780386 6.5548,-7.17977 15.92136,-10.2421284 31.3322,-10.2439332 9.91866,-0.00116 16.32415,1.1736864 22.50746,4.1281492 4.26016,2.035562 8.92811,6.638288 11.03639,10.882196 1.39609,2.810304 3.57422,10.481616 3.10834,10.947497 -0.11326,0.11326 -4.71469,0.461786 -10.2254,0.774504 -5.51072,0.312717 -11.2027,0.665204 -12.64886,0.783305 -2.0956,0.171137 -2.62938,0.09304 -2.62938,-0.384711 0,-1.493667 -1.94696,-5.564091 -3.43205,-7.175221 -2.49232,-2.703845 -5.18678,-3.705315 -10.03035,-3.728047 -3.19834,-0.01501 -4.38254,0.158113 -5.92857,0.86672 -2.43643,1.11672 -3.82451,3.031406 -4.07308,5.618347 -0.17588,1.830403 -0.064,2.136411 1.35471,3.706801 1.85299,2.051039 3.64753,2.703226 14.01327,5.092823 20.58309,4.74499 29.72438,9.670708 34.1051,18.377295 l 0.86726,1.723663 -1.02891,3.240068 c -1.69299,5.331281 -2.37861,10.073657 -2.44243,16.894262 l -0.0593,6.332951 -1.54112,1.800449 c -3.87989,4.532783 -8.9241,7.703832 -15.70442,9.872596 -5.35922,1.714214 -15.72923,2.565303 -23.76956,1.950828 z"
     style="fill:#f0f0f0;fill-opacity:1;stroke:#000000;stroke-width:0.04207" />
  <path
     id="path912"
     d="m 400.39483,99.466774 c -2.37495,-0.573124 -4.80083,-1.932953 -6.89975,-3.867677 l -1.87941,-1.732379 4.11317,-3.841936 4.11316,-3.841937 1.52923,1.607551 c 1.32818,1.396206 1.77704,1.607551 3.41418,1.607551 1.42637,0 2.1075,-0.236886 2.79969,-0.97369 0.97563,-1.038504 1.21393,-3.242357 0.53999,-4.993899 -0.20612,-0.53568 -3.70844,-5.667997 -7.78296,-11.405148 -4.07451,-5.737153 -7.4082,-10.503483 -7.4082,-10.591847 0,-0.206743 8.40225,-6.134024 9.0449,-6.380632 0.63703,-0.244451 13.83962,18.506243 15.86075,22.525898 1.87867,3.736308 2.28611,6.00798 1.59458,8.89059 -1.09598,4.568572 -5.13196,8.763016 -11.14467,11.582244 -3.33832,1.565265 -5.59603,1.970017 -7.89466,1.415311 z"
     style="fill:#f0f0f0;fill-opacity:1;stroke:#000000;stroke-width:0.04207" />
  <path
     id="path914"
     d="m 428.0624,76.407052 c -1.38832,-0.665845 -3.12731,-1.848915 -3.86444,-2.629044 l -1.34023,-1.418417 4.316,-3.407798 4.316,-3.407798 1.13193,0.973644 c 2.89331,2.488719 6.73472,2.219556 9.62897,-0.67469 1.32829,-1.328294 1.58802,-1.874475 1.58802,-3.33944 0,-2.369585 -1.4092,-3.816672 -3.71674,-3.816672 -0.91238,0 -4.07461,0.878876 -7.06585,1.963809 -4.87304,1.767469 -5.79292,1.967259 -9.20067,1.998325 -4.14892,0.03782 -5.42079,-0.402593 -7.67631,-2.658113 -2.9945,-2.994506 -3.77706,-7.980913 -1.86624,-11.891581 1.94124,-3.97292 8.16465,-9.156629 13.58802,-11.317963 3.25848,-1.298577 6.73047,-1.251414 9.41694,0.127916 1.92791,0.989858 4.38548,3.090771 3.96325,3.388082 -0.0973,0.06853 -1.98906,1.56271 -4.20387,3.320401 l -4.02691,3.1958 -1.01609,-0.766439 c -2.41699,-1.823136 -5.78463,-1.35243 -7.94741,1.110834 -1.44396,1.64458 -1.73145,3.901927 -0.61495,4.828539 1.09566,0.909312 3.05851,0.565412 8.21725,-1.439699 8.53969,-3.319221 13.01962,-3.728377 16.59927,-1.516028 4.75388,2.938062 6.84283,9.443778 4.78389,14.89873 -0.74446,1.972361 -1.63179,3.185446 -4.15432,5.679452 -7.2989,7.21635 -14.85088,9.678022 -20.85551,6.79815 z"
     style="fill:#f0f0f0;fill-opacity:1;stroke:#000000;stroke-width:0.04207" />
  <path
     id="path918"
     d="m 403.37395,123.44105 c -16.58258,-1.75631 -30.16039,-10.77715 -37.11667,-24.659605 -5.54675,-11.0695 -6.14799,-24.666268 -1.69118,-38.245236 1.59436,-4.85766 5.6881,-12.865776 8.79515,-17.204928 19.32704,-26.991164 54.71544,-38.6761762 80.38616,-26.542966 5.41825,2.560924 8.13314,4.407793 12.15421,8.268175 13.20398,12.67635 17.02641,31.531987 10.28767,50.747966 -8.92424,25.448084 -33.80059,44.913144 -60.89765,47.650744 -4.85731,0.49073 -7.17676,0.48798 -11.91769,-0.0141 z m 17.90249,-2.49572 c 24.25358,-4.69959 45.48975,-22.882702 53.43148,-45.749791 2.29032,-6.594668 2.96247,-10.693179 2.94886,-17.981153 -0.0131,-7.000888 -0.73122,-10.900167 -3.11927,-16.936497 -2.29552,-5.802442 -8.92245,-14.231264 -14.01573,-17.82667 -14.47022,-10.214692 -34.05357,-11.627681 -53.47091,-3.858065 -5.83696,2.33559 -5.83115,2.331936 -16.70171,10.50766 -7.11427,5.350623 -9.70055,7.563538 -11.82594,10.118694 -13.17887,15.843763 -18.26837,34.936641 -13.73565,51.528205 1.2424,4.547676 4.57996,11.016547 7.71424,14.951777 6.7322,8.4526 18.2136,14.57336 30.14983,16.07297 4.61185,0.57941 13.3742,0.19027 18.6248,-0.82713 z"
     style="fill:#f0f0f0;fill-opacity:1;stroke:#000000;stroke-width:0.04207" />
  <path
     id="path920"
     d="m 430.5866,204.61019 c -17.49323,-1.92441 -30.00202,-11.59509 -35.35491,-27.33324 -3.3609,-9.88144 -3.5382,-24.35959 -0.42853,-34.99208 1.83023,-6.25786 5.50512,-12.66769 9.4416,-16.46826 1.59952,-1.54431 1.86179,-1.64787 3.93105,-1.5523 3.37196,0.15573 10.95564,-0.70931 15.88993,-1.8125 5.79783,-1.29626 11.72403,-3.52132 17.59393,-6.60584 l 4.76257,-2.50265 3.8202,0.65926 c 14.32421,2.47195 25.08624,10.55353 30.46797,22.87945 l 1.40168,3.21028 0.005,-12.72618 0.005,-12.72617 h 13.67276 13.67275 v 33.65601 33.65601 h 21.66606 21.66606 v 10.72785 10.72786 h -35.33881 -35.33882 l -0.005,-12.72618 -0.005,-12.72618 -1.43464,3.28612 c -5.85963,13.42179 -17.64562,21.61543 -33.68355,23.41685 -4.43044,0.49763 -11.6385,0.4765 -16.40731,-0.0481 z m 11.67979,-20.11526 c 5.39735,-0.88401 10.02464,-4.15537 12.22555,-8.6431 2.15605,-4.39626 2.58885,-7.23904 2.59401,-17.03836 0.005,-8.78058 -0.0298,-9.15029 -1.17522,-12.64428 -1.88131,-5.73854 -5.1716,-9.38224 -10.27051,-11.3737 -3.50409,-1.36857 -10.6655,-1.39057 -14.00187,-0.043 -8.84688,3.57326 -12.18119,11.21784 -11.6571,26.7263 0.24137,7.14237 0.79201,10.05646 2.63937,13.96803 3.28814,6.96223 10.92013,10.47725 19.64577,9.04812 z"
     style="fill:#f0f0f0;fill-opacity:1;stroke:#000000;stroke-width:0.04207" />
  <path
     id="path922"
     d="m 311.31811,204.83945 c -8.11647,-0.96068 -15.27943,-3.11085 -20.30042,-6.09376 -3.59542,-2.136 -9.05301,-7.25492 -11.40106,-10.69356 -0.94799,-1.38831 -2.43339,-3.94406 -3.30089,-5.67945 l -1.57725,-3.15525 -0.0106,12.09513 -0.0107,12.09513 h -13.67275 -13.67276 v -18.09011 -18.09011 h -15.1452 -15.14521 v 18.09011 18.09011 h -13.67275 -13.67276 v -44.38387 -44.38386 h 13.67276 13.67275 v 15.5659 15.56591 h 15.14521 15.1452 v -15.56591 -15.5659 h 13.67276 13.67275 l 0.0106,12.09512 0.0106,12.09513 1.57472,-3.15525 c 6.30045,-12.62414 17.32291,-20.06336 32.71732,-22.08139 17.27304,-2.26429 33.01269,1.93685 42.49933,11.34371 6.12342,6.07191 9.48548,12.78681 11.37943,22.72764 0.9744,5.11432 0.97143,16.50878 -0.006,22.2971 -3.08972,18.30089 -14.19521,30.06807 -32.02282,33.93083 -3.67669,0.79664 -15.85204,1.38578 -19.56256,0.9466 z m 11.09115,-20.56895 c 5.20632,-1.10305 8.77632,-3.81953 10.97994,-8.35484 2.19722,-4.52211 2.92914,-8.85282 2.92595,-17.31254 -0.003,-7.76213 -0.53216,-10.97646 -2.52827,-15.35555 -3.34308,-7.33408 -12.69908,-11.29812 -21.34863,-9.0452 -4.34688,1.13222 -8.78424,4.68065 -10.80395,8.63958 -3.56376,6.98555 -3.86264,23.1193 -0.58018,31.31872 3.25778,8.13781 11.7306,12.14896 21.35514,10.10983 z"
     style="fill:#f0f0f0;fill-opacity:1;stroke:#000000;stroke-width:0.04207" />
  <path
     id="path924"
     d="m 29.808184,204.4501 c -5.580824,-0.76143 -8.751936,-1.67292 -13.223012,-3.80075 -5.726125,-2.72512 -10.2031866,-7.5601 -13.2762596,-14.33762 -1.8885555,-4.16512 -3.56159275,-11.92658 -2.57268715,-11.93506 0.17353881,-10e-4 5.90031955,-0.3789 12.72617975,-0.83869 6.825859,-0.4598 12.44294,-0.83721 12.482402,-0.8387 0.03946,-0.002 0.194688,0.61257 0.344947,1.36457 1.262484,6.31835 3.718615,10.01945 8.072964,12.16503 2.525155,1.24426 3.308885,1.41881 6.944206,1.54667 5.049869,0.17759 7.692998,-0.58613 10.279403,-2.97019 2.030274,-1.87144 2.841152,-3.83334 2.776844,-6.71847 -0.121288,-5.44133 -3.663373,-7.70111 -17.58071,-11.21612 -13.398181,-3.38389 -20.484513,-6.42245 -25.443248,-10.90984 -5.2589765,-4.75911 -7.5529117,-9.85707 -7.5529117,-16.78533 0,-7.02131 2.3682507,-12.25363 7.9017807,-17.45788 6.367025,-5.98816 15.079819,-8.48614 29.540532,-8.46935 18.866268,0.0219 29.577875,5.30191 34.299889,16.90725 l 0.921022,2.2636 1.502829,-2.2636 c 1.762065,-2.65408 6.552304,-7.5097 9.181957,-9.30729 8.476166,-5.79418 20.898099,-8.56497 33.574309,-7.48896 15.06077,1.27843 24.26998,6.45931 30.78744,17.32029 1.54093,2.56789 4.75827,9.61685 4.48944,9.83607 -0.2241,0.18274 -23.58225,5.2786 -23.66499,5.1628 -0.046,-0.0644 -0.66128,-1.37102 -1.36724,-2.90357 -1.63699,-3.5537 -3.67125,-5.79424 -6.75128,-7.43588 -6.73453,-3.58947 -15.80044,-2.22105 -20.68369,3.12201 -2.34989,2.57115 -3.583997,5.02107 -4.67181,9.27437 -2.13714,8.35614 -1.177712,23.07245 1.90019,29.14641 1.37711,2.7176 4.61351,5.59732 7.60489,6.76677 3.53692,1.38274 10.22028,1.3858 13.79113,0.006 4.55764,-1.7607 7.79988,-5.77428 9.82739,-12.1654 0.63355,-1.99706 1.19756,-3.70158 1.25337,-3.7878 0.14536,-0.22462 22.99726,6.68714 23.4111,7.08088 0.46101,0.43862 -1.45125,6.043 -3.34811,9.81251 -3.41987,6.79611 -7.44,11.37478 -13.06594,14.88128 -7.55708,4.71012 -19.10467,6.5569 -32.18925,5.14795 -12.510388,-1.34712 -20.741176,-5.51594 -27.563527,-13.96067 l -2.620546,-3.24373 -0.829969,1.57818 c -3.118365,5.92951 -9.884792,11.14588 -17.816416,13.73502 -6.952541,2.26954 -19.829312,3.02172 -29.392618,1.71693 z m 42.308399,-60.52883 0.995246,-4.16434 -5.318929,0.26998 c -2.92541,0.14849 -7.59949,0.39296 -10.386838,0.54326 l -5.067906,0.27329 -0.70519,-2.53643 c -0.959596,-3.45147 -2.922894,-5.90463 -5.974943,-7.46575 -2.268701,-1.16043 -2.830757,-1.26647 -6.713133,-1.26647 -3.615692,0 -4.536241,0.14725 -6.276563,1.00401 -4.094106,2.01551 -5.303489,6.67226 -2.472874,9.52183 1.67628,1.68751 3.737272,2.43862 12.030931,4.38455 13.34789,3.13179 21.255252,5.74564 25.927039,8.57042 l 2.313851,1.39906 0.327027,-3.18453 c 0.179866,-1.75149 0.774892,-5.05849 1.322282,-7.34888 z"
     style="fill:#f0f0f0;fill-opacity:1;stroke:#000000;stroke-width:0.04207" />
  <path
     id="path2858"
     d="m 403.66179,121.5074 c -21.51944,-2.70065 -36.5392,-16.48806 -39.56252,-36.316454 -1.17529,-7.708094 -0.42335,-15.351841 2.3226,-23.610227 2.47662,-7.448395 5.76918,-13.5636 10.73195,-19.932238 3.45589,-4.434892 4.79796,-5.62729 14.78743,-13.138309 9.06837,-6.818446 11.91392,-8.472462 18.54954,-10.782167 7.99813,-2.783969 11.94631,-3.426946 20.93721,-3.409713 6.69864,0.01284 8.62674,0.163819 11.9042,0.932159 7.02835,1.647667 14.08483,5.067248 19.22976,9.318768 2.76122,2.281735 9.29678,10.997904 11.03392,14.715396 3.35311,7.17571 4.58778,16.517304 3.31846,25.10777 -4.2617,28.842326 -30.38058,53.303565 -60.83086,56.970205 -3.40037,0.40945 -9.7254,0.48319 -12.42169,0.14481 z m 5.56091,-23.692547 c 4.0148,-1.989411 7.85218,-5.434937 9.37531,-8.417949 1.42723,-2.79522 1.59483,-6.697248 0.42116,-9.806045 -1.41597,-3.750622 -15.74962,-24.690324 -16.90102,-24.690324 -0.7439,0 -9.18422,5.99902 -9.18422,6.527752 0,0.28001 3.40767,5.383186 7.57261,11.340385 6.87293,9.830521 7.5726,10.993302 7.5726,12.584916 0,2.600806 -0.89703,3.623659 -3.17789,3.623659 -1.55329,0 -2.15006,-0.254747 -3.54137,-1.51171 l -1.67328,-1.511711 -4.24531,3.930736 -4.24532,3.930737 1.99234,1.815956 c 5.21566,4.753915 9.6332,5.355505 16.03439,2.183598 z m 29.42628,-21.026652 c 3.32639,-1.169134 7.0719,-3.726604 10.45245,-7.137044 3.85242,-3.886465 4.52302,-5.258697 4.74141,-9.70222 0.16719,-3.401727 0.10696,-3.708249 -1.23609,-6.291387 -2.41663,-4.64795 -6.09223,-6.684893 -11.07647,-6.138348 -1.39133,0.152566 -5.63578,1.324678 -9.43211,2.604694 -5.69811,1.921238 -7.07442,2.248942 -7.88813,1.878189 -2.06297,-0.93995 -0.85975,-4.688865 1.97546,-6.155008 1.68771,-0.872747 3.59419,-0.775316 5.47117,0.279601 l 1.60533,0.902247 3.92105,-3.081843 c 2.15658,-1.695014 4.09839,-3.234408 4.31514,-3.420876 0.57495,-0.494614 -1.13209,-2.145656 -3.67604,-3.555458 -1.89469,-1.049994 -2.60906,-1.206715 -5.3424,-1.172032 -4.63873,0.05886 -9.37012,2.440643 -14.4256,7.261835 -3.28767,3.135309 -4.52825,5.316692 -4.81365,8.464085 -0.30405,3.353158 0.46775,5.906183 2.47482,8.186332 3.41441,3.878973 8.37889,4.201271 17.69309,1.148659 2.9403,-0.963648 6.01667,-1.75209 6.83638,-1.75209 2.00245,0 3.17316,1.207169 3.17316,3.271991 0,2.00841 -0.80449,3.155566 -3.19574,4.556931 -2.39004,1.400658 -4.90711,1.243157 -7.12118,-0.445597 -0.81817,-0.62405 -1.64006,-1.073399 -1.82641,-0.998557 -0.96379,0.387086 -8.44378,6.515989 -8.45633,6.928881 -0.0233,0.768367 2.89347,3.114872 5.21659,4.196631 2.77636,1.292812 7.21774,1.364103 10.6141,0.170384 z"
     style="fill:#222222;fill-opacity:1;stroke:#000000;stroke-width:0.04207" />
</svg>
